<?xml version="1.0" encoding="iso-8859-1"?>
<!-- Generator: Adobe Illustrator 19.0.0, SVG Export Plug-In . SVG Version: 6.00 Build 0)  -->
<svg version="1.1" id="Capa_1" xmlns="http://www.w3.org/2000/svg" xmlns:xlink="http://www.w3.org/1999/xlink" x="0px" y="0px"
	 viewBox="0 0 384 384" style="enable-background:new 0 0 384 384;" xml:space="preserve">
<g>
	<g>
		<path d="M291.711,117.15L336,64l-32-48h-96l-32,48l44.289,53.15C166.996,132.619,128,181.715,128,240
			c0,28.334,9.32,54.429,24.902,75.634c10.453-3.455,19.906-8.902,27.961-16.057C167.84,283.189,160,262.509,160,240
			c0-28.28,12.367-53.664,31.89-71.249C211.5,186.321,224,211.657,224,240c0,52.934-43.066,96-96,96s-96-43.066-96-96
			s43.066-96,96-96c6.598,0,13.043,0.672,19.274,1.946c8.172-9.45,17.539-17.799,27.886-24.862C160.55,115.285,144.672,112,128,112
			C57.309,112,0,169.308,0,240s57.309,128,128,128c23.363,0,45.195-6.362,64.05-17.296C210.87,361.636,232.664,368,256,368
			c70.691,0,128-57.308,128-128C384,181.715,345.004,132.619,291.711,117.15z M277.809,108.836L288.43,80h13.406L277.809,108.836z
			 M302.313,42.314l13.746,20.62L315.173,64h-20.848L302.313,42.314z M289.074,32l-7.793,21.143L269.434,32H289.074z M271.386,80
			l-11.855,32.178c-1.183-0.032-2.34-0.178-3.531-0.178c-1.191,0-2.344,0.146-3.523,0.178L240.633,80H271.386z M255.984,40.734
			L269.015,64h-26.149L255.984,40.734z M242.535,32l-11.84,21.001L222.969,32H242.535z M195.942,62.934l13.762-20.646L217.691,64
			h-20.863L195.942,62.934z M210.165,80h13.414l10.614,28.835L210.165,80z M256,336c-12.73,0-24.785-2.7-35.898-7.244
			C242.289,305.738,256,274.494,256,240c0-34.602-13.879-65.839-36.207-88.858C230.976,146.568,243.187,144,256,144
			c52.934,0,96,43.066,96,96S308.934,336,256,336z"/>
	</g>
</g>
<g>
</g>
<g>
</g>
<g>
</g>
<g>
</g>
<g>
</g>
<g>
</g>
<g>
</g>
<g>
</g>
<g>
</g>
<g>
</g>
<g>
</g>
<g>
</g>
<g>
</g>
<g>
</g>
<g>
</g>
</svg>
