<?xml version="1.0" encoding="iso-8859-1"?>
<!-- Generator: Adobe Illustrator 16.0.0, SVG Export Plug-In . SVG Version: 6.00 Build 0)  -->
<!DOCTYPE svg PUBLIC "-//W3C//DTD SVG 1.1//EN" "http://www.w3.org/Graphics/SVG/1.1/DTD/svg11.dtd">
<svg version="1.1" id="Capa_1" xmlns="http://www.w3.org/2000/svg" xmlns:xlink="http://www.w3.org/1999/xlink" x="0px" y="0px"
	 width="355.988px" height="355.988px" viewBox="0 0 355.988 355.988" style="enable-background:new 0 0 355.988 355.988;"
	 xml:space="preserve">
<g>
	<g>
		<g>
			<path d="M97.092,62.763c2.426,0,4.87-0.295,7.29-0.859c8.143-1.951,15.048-6.947,19.45-14.093
				c4.393-7.14,5.737-15.559,3.783-23.71C124.237,9.908,111.696,0,97.128,0c-2.435,0-4.894,0.292-7.311,0.862
				C72.998,4.885,62.577,21.837,66.585,38.665C69.975,52.846,82.519,62.763,97.092,62.763z"/>
		</g>
		<g>
			<path d="M315.945,227.96l-97.998,53.545c1.892-3.002,2.786-5.704,2.822-5.843c0.895-5.554-0.426-11.103-3.717-15.685
				l-28.823-39.289c1.424-6.953,5.513-23.274,14.454-35.428c7.092-3.363,13.12-8.879,16.429-14.995
				c4.786-5.638,6.354-13.546,4.023-19.948c-0.576-4.312-2.036-8.542-4.329-12.58l-1.213-2.06l0.065-0.045l-0.522-0.88
				c-1.057-1.769-2.18-3.585-3.332-5.41l62.786-6.954v5.603h6.491v-6.323l9.703-1.075l-0.69-6.438l-9.013,0.988v-3.756h-6.491v4.477
				l-66.63,7.38c-13.258-20.692-29.738-43.664-45.27-63.107c-4.801-6.02-12.199-9.586-20.812-10.034
				c-10.379-0.528-20.723,3.293-27.382,10.034c-3.972,4.008-6.752,8.602-8.239,13.625c-0.795,1.15-1.453,2.312-2.029,3.591
				l-14.634,33.267l-35.614,3.678c-13.616,1.414-19.918,12.204-18.945,21.632c0.735,7.212,6.302,15.739,19.615,14.441l48.888-5.059
				c0.837-0.087,1.699-0.1,2.564-0.1l2.552,0.012c3.231,0,9.188,0,11.932-5.78l16.165-1.795l0.405,0.609
				c5.699,8.274,11.247,16.958,16.51,25.788c-22.131,23.206-25.581,57.943-26.043,71.88l-0.012,0.78
				c-0.511,5.104,0.879,10.196,3.87,14.357l37.944,52.734l0.892,0.57c0.228,0.108,1.068,0.486,2.396,0.769l-71.055,38.827
				c-10.16,5.549-18.981,6.936-26.034,4.107c-9.857-3.976-13.424-15.048-13.448-15.144l-0.291-1.016l-6.215,1.922l0.306,0.984
				c0.181,0.57,4.447,14.069,17.18,19.233c3.167,1.291,6.599,1.934,10.202,1.934c6.506,0,13.706-2.138,21.404-6.329l211.381-115.514
				l0.907-0.492L315.945,227.96z M203.92,289.173l-5.92,3.225c0.78-1.411,1.525-2.948,2.222-4.611
				C201.44,288.465,202.684,288.927,203.92,289.173z M134.598,131.589l-9.359,1.039l3.63-9.434L134.598,131.589z"/>
		</g>
	</g>
</g>
<g>
</g>
<g>
</g>
<g>
</g>
<g>
</g>
<g>
</g>
<g>
</g>
<g>
</g>
<g>
</g>
<g>
</g>
<g>
</g>
<g>
</g>
<g>
</g>
<g>
</g>
<g>
</g>
<g>
</g>
</svg>
