<?xml version="1.0" encoding="iso-8859-1"?>
<!-- Generator: Adobe Illustrator 16.0.0, SVG Export Plug-In . SVG Version: 6.00 Build 0)  -->
<!DOCTYPE svg PUBLIC "-//W3C//DTD SVG 1.1//EN" "http://www.w3.org/Graphics/SVG/1.1/DTD/svg11.dtd">
<svg version="1.1" id="Capa_1" xmlns="http://www.w3.org/2000/svg" xmlns:xlink="http://www.w3.org/1999/xlink" x="0px" y="0px"
	 width="528.232px" height="528.232px" viewBox="0 0 528.232 528.232" style="enable-background:new 0 0 528.232 528.232;"
	 xml:space="preserve">
<g>
	<g>
		<path d="M51.492,460.852c9.869,7.401,26.383,9.17,41.731-11.245c0,0,64.575-88.023,111.766-151.93
			c-0.401,2.057-1.233,4.476-2.486,6.962c-2.745,5.374-3.768,10.624-2.295,11.733s5.25-3.175,8.454-9.582l1.09-2.181
			c3.022-6.053,3.395-12.393,1.09-14.859c9.352-12.633,17.853-24.107,24.738-33.355c1.071-1.453,1.855-2.983,2.381-4.561
			c1.54-1.291,3.108-2.84,4.609-4.8c52.067-68.841,149.059-194.406,149.059-194.406c19.814-26.374,12.049-39.78,2.182-47.191
			c-9.869-7.401-24.9-11.15-44.725,15.224c0,0-93.674,128.061-145.34,197.198c-1.482,1.979-2.543,3.93-3.356,5.776
			c-1.348,0.927-2.601,2.123-3.691,3.538c-6.98,9.189-15.625,20.54-25.178,33.038c-3.012-1.529-8.998,0.574-13.971,5.174
			l-1.788,1.645c-5.259,4.867-8.329,9.696-6.856,10.796c1.473,1.109,6.235-1.339,10.653-5.46c2.018-1.874,4.122-3.356,5.977-4.312
			C117.282,331.156,50.689,417.629,50.689,417.629C35.341,438.045,41.624,453.422,51.492,460.852z M153.409,307.555
			c2.046-6.311,7.182-16.046,11.485-21.764l7.047-9.362c4.293-5.728,10.289-11.838,13.388-13.694c3.098-1.826,6.569-2.61,7.727-1.73
			c1.176,0.87,5.613-3.031,9.907-8.759l9.801-13.034c4.016-5.346,4.045-11.972,0.44-15.549c1.272-0.86,2.534-1.597,3.634-1.989
			c2.897-1.004,8.233,0.411,11.915,3.184c3.681,2.764,6.569,7.526,6.455,10.624c-0.048,1.167-0.392,2.62-0.861,4.083
			c-4.418-2.429-10.758-0.574-14.764,4.762l-9.812,13.043c-4.293,5.728-6.828,11.074-5.651,11.954s1.387,4.428,0.488,7.908
			c-0.908,3.49-5.116,10.959-9.419,16.677l-7.038,9.362c-4.303,5.718-12.23,13.349-17.729,17.068
			c-5.489,3.72-12.354,4.906-15.329,2.658C152.118,320.781,151.363,313.857,153.409,307.555z"/>
		<path d="M476.631,67.699c-9.869-7.411-24.9-11.159-44.725,15.205c0,0-93.664,128.07-145.33,197.208
			c-1.482,1.979-2.525,3.931-3.355,5.776c-1.34,0.937-2.592,2.123-3.682,3.548c-6.973,9.189-15.636,20.54-25.188,33.048
			c-2.993-1.54-8.989,0.573-13.961,5.163l-1.798,1.654c-5.259,4.858-8.329,9.688-6.856,10.787s6.244-1.339,10.643-5.46
			c2.027-1.894,4.131-3.356,5.996-4.332c-48.262,63.084-114.884,149.586-114.884,149.586c-15.357,20.416-9.065,35.802,0.803,43.223
			c9.859,7.401,26.383,9.189,41.74-11.246c0,0,64.576-88.022,111.767-151.919c-0.412,2.046-1.244,4.484-2.496,6.952
			c-2.734,5.384-3.768,10.643-2.285,11.752c1.463,1.09,5.25-3.185,8.453-9.591l1.09-2.19c3.021-6.033,3.404-12.373,1.09-14.831
			c9.352-12.661,17.854-24.126,24.748-33.383c1.07-1.443,1.865-2.983,2.391-4.532c1.549-1.311,3.107-2.859,4.609-4.829
			c52.068-68.851,149.061-194.397,149.061-194.397C494.284,88.526,486.5,75.11,476.631,67.699z M317.139,301.818
			c-4.418-2.438-10.758-0.563-14.766,4.763l-9.801,13.033c-4.295,5.729-6.828,11.073-5.652,11.953s1.396,4.428,0.488,7.918
			c-0.908,3.471-5.125,10.93-9.42,16.667l-7.037,9.362c-4.303,5.728-12.23,13.358-17.729,17.078
			c-5.489,3.711-12.354,4.906-15.329,2.658c-2.974-2.228-3.729-9.151-1.693-15.453c2.037-6.301,7.182-16.055,11.475-21.764
			l7.048-9.361c4.293-5.729,10.299-11.839,13.397-13.694c3.098-1.826,6.568-2.61,7.735-1.73c1.177,0.89,5.614-3.021,9.907-8.74
			l9.801-13.033c4.018-5.355,4.045-11.992,0.439-15.549c1.273-0.87,2.545-1.606,3.635-1.989c2.906-1.014,8.232,0.411,11.914,3.165
			c3.672,2.773,6.57,7.517,6.445,10.634C317.961,298.92,317.616,300.355,317.139,301.818z"/>
	</g>
</g>
<g>
</g>
<g>
</g>
<g>
</g>
<g>
</g>
<g>
</g>
<g>
</g>
<g>
</g>
<g>
</g>
<g>
</g>
<g>
</g>
<g>
</g>
<g>
</g>
<g>
</g>
<g>
</g>
<g>
</g>
</svg>
